<svg id="Layer_1" data-name="Layer 1" xmlns="http://www.w3.org/2000/svg" viewBox="0 0 1189.76 180.44"><defs><style>.cls-1{fill:#a12e34;}</style></defs><path class="cls-1" d="M327.11,352.22,261.86,176.11H321l33.49,104.8h1.16l33.78-104.8h59.76L383.69,352.22ZM454.72,189.1v-13h58.89v13ZM455,352.22l-.29-154.46h58.89V352.22Zm71,0V197.76h60.34v18.77c10.68-15,25.4-23.39,45.61-23.39,27.43,0,58.32,17,58.32,56.3V352.22H632.56v-86.9c0-18.19-11.26-24-21.36-24h-.29c-11.26.29-23.39,6.64-23.39,26.56v84.3ZM701,300V197.76h58v86.9c0,17.9,10.4,24,20.79,24,11.84,0,23.39-6.64,23.39-26.28V197.76h57.74V352.22H804.34V333.17c-11,15-25.41,23.09-45.33,23.09C729.85,356.26,701,339.81,701,300Zm172.65,52.25V197.76h55.43v18.48c13.57-17.9,33.78-23.1,53.7-23.1,21.08,0,39.26,5.49,47.92,24.83,13.29-19.05,32.92-24.83,53.42-24.83,27.42,0,51.39,17.33,51.39,56.3V352.22H1076.3V263.88c0-17.32-10.39-22.52-20.21-22.52-11,0-22.23,6.06-22.23,25.4v85.46H975.25V263.88c0-17.32-10.1-22.52-20.21-22.52-11,0-22.52,6.06-22.52,25.4v85.46Zm269.65-77.37c0-43.31,26-81.71,74.2-81.71,21.07,0,36.38,6.93,47.06,21.66V197.48H1324V352.22h-59.47V333.17c-11,15-26.56,23.38-47.06,23.38C1169.26,356.55,1143.28,317.87,1143.28,274.85Zm124.14,0c0-18.19-15.3-33.2-33.77-33.2a33.49,33.49,0,1,0,0,67A33.82,33.82,0,0,0,1267.42,274.85Zm69.29,77.37V197.76h55.44v19.92c11-21.36,32.62-24.54,47.34-24.54a34.72,34.72,0,0,1,12.13,1.74v60.91c-6.64-4.33-15.3-6.06-23.39-6.06-18.47,0-32.33,11-32.33,40.13v62.36Z" transform="translate(-261.86 -176.11)"/></svg>